<svg id="svg" version="1.1" xmlns="http://www.w3.org/2000/svg" xmlns:xlink="http://www.w3.org/1999/xlink" width="400" height="242.320819112628" viewBox="0, 0, 400,242.320819112628"><g id="svgg"><path id="path0" d="M41.939 12.242 C 41.939 12.442,41.776 12.606,41.576 12.606 C 41.376 12.606,41.212 12.770,41.212 12.970 C 41.212 13.249,40.902 13.333,39.879 13.333 C 38.855 13.333,38.545 13.418,38.545 13.697 C 38.545 13.897,38.382 14.061,38.182 14.061 C 37.982 14.061,37.818 14.224,37.818 14.424 C 37.818 14.651,37.589 14.788,37.212 14.788 C 36.879 14.788,36.606 14.897,36.606 15.030 C 36.606 15.164,36.442 15.273,36.242 15.273 C 36.042 15.273,35.879 15.436,35.879 15.636 C 35.879 15.836,35.715 16.000,35.515 16.000 C 35.315 16.000,35.152 16.164,35.152 16.364 C 35.152 16.564,34.988 16.727,34.788 16.727 C 34.588 16.727,34.424 16.891,34.424 17.091 C 34.424 17.291,34.261 17.455,34.061 17.455 C 33.861 17.455,33.697 17.571,33.697 17.714 C 33.697 18.050,33.080 18.667,32.745 18.667 C 32.602 18.667,32.485 18.830,32.485 19.030 C 32.485 19.230,32.321 19.394,32.121 19.394 C 31.879 19.394,31.758 19.636,31.758 20.121 C 31.758 20.606,31.636 20.848,31.394 20.848 C 31.152 20.848,31.030 21.091,31.030 21.576 C 31.030 22.061,30.909 22.303,30.667 22.303 C 30.445 22.303,30.303 22.529,30.303 22.883 C 30.303 23.202,30.139 23.526,29.939 23.603 C 29.699 23.695,29.576 24.075,29.576 24.720 C 29.576 25.257,29.467 25.697,29.333 25.697 C 29.182 25.697,29.091 27.192,29.091 29.697 C 29.091 32.202,29.182 33.697,29.333 33.697 C 29.467 33.697,29.576 34.137,29.576 34.674 C 29.576 35.319,29.699 35.699,29.939 35.791 C 30.139 35.868,30.303 36.195,30.303 36.518 C 30.303 36.842,30.467 37.169,30.667 37.246 C 30.867 37.322,31.030 37.646,31.030 37.965 C 31.030 38.319,31.172 38.545,31.394 38.545 C 31.594 38.545,31.758 38.709,31.758 38.909 C 31.758 39.109,31.921 39.273,32.121 39.273 C 32.364 39.273,32.485 39.515,32.485 40.000 C 32.485 40.400,32.602 40.727,32.745 40.727 C 33.080 40.727,33.697 41.344,33.697 41.680 C 33.697 41.823,33.861 41.939,34.061 41.939 C 34.261 41.939,34.424 42.103,34.424 42.303 C 34.424 42.503,34.588 42.667,34.788 42.667 C 34.988 42.667,35.152 42.830,35.152 43.030 C 35.152 43.230,35.315 43.394,35.515 43.394 C 35.715 43.394,35.879 43.558,35.879 43.758 C 35.879 43.958,36.042 44.121,36.242 44.121 C 36.442 44.121,36.606 44.285,36.606 44.485 C 36.606 44.711,36.835 44.848,37.212 44.848 C 37.545 44.848,37.818 44.958,37.818 45.091 C 37.818 45.224,38.309 45.333,38.909 45.333 C 39.717 45.333,40.000 45.428,40.000 45.697 C 40.000 45.923,40.229 46.061,40.606 46.061 C 40.983 46.061,41.212 46.198,41.212 46.424 C 41.212 46.713,41.562 46.788,42.909 46.788 C 44.256 46.788,44.606 46.863,44.606 47.152 C 44.606 47.473,48.296 47.515,76.364 47.515 C 104.431 47.515,108.121 47.557,108.121 47.879 C 108.121 48.121,108.364 48.242,108.848 48.242 C 109.248 48.242,109.576 48.352,109.576 48.485 C 109.576 48.618,109.739 48.727,109.939 48.727 C 110.468 48.727,110.468 52.006,109.939 52.209 C 109.739 52.286,109.576 52.625,109.576 52.962 C 109.576 53.346,109.440 53.576,109.212 53.576 C 108.970 53.576,108.848 53.818,108.848 54.303 C 108.848 54.788,108.727 55.030,108.485 55.030 C 108.285 55.030,108.121 55.194,108.121 55.394 C 108.121 55.594,107.958 55.758,107.758 55.758 C 107.531 55.758,107.394 55.987,107.394 56.364 C 107.394 56.697,107.285 56.970,107.152 56.970 C 107.018 56.970,106.909 57.297,106.909 57.697 C 106.909 58.182,106.788 58.424,106.545 58.424 C 106.343 58.424,106.182 58.640,106.182 58.909 C 106.182 59.414,105.391 60.364,104.970 60.364 C 104.836 60.364,104.727 60.691,104.727 61.091 C 104.727 61.576,104.606 61.818,104.364 61.818 C 104.135 61.818,104.000 62.049,104.000 62.442 C 104.000 63.081,103.510 63.758,103.048 63.758 C 102.905 63.758,102.788 64.085,102.788 64.485 C 102.788 64.970,102.667 65.212,102.424 65.212 C 102.182 65.212,102.061 65.455,102.061 65.939 C 102.061 66.424,101.939 66.667,101.697 66.667 C 101.471 66.667,101.333 66.896,101.333 67.273 C 101.333 67.650,101.196 67.879,100.970 67.879 C 100.770 67.879,100.606 68.042,100.606 68.242 C 100.606 68.442,100.497 68.606,100.364 68.606 C 100.230 68.606,100.121 68.933,100.121 69.333 C 100.121 69.818,100.000 70.061,99.758 70.061 C 99.558 70.061,99.394 70.224,99.394 70.424 C 99.394 70.624,99.230 70.788,99.030 70.788 C 98.804 70.788,98.667 71.017,98.667 71.394 C 98.667 71.771,98.529 72.000,98.303 72.000 C 98.061 72.000,97.939 72.242,97.939 72.727 C 97.939 73.212,97.818 73.455,97.576 73.455 C 97.354 73.455,97.212 73.681,97.212 74.035 C 97.212 74.354,97.048 74.678,96.848 74.754 C 96.648 74.831,96.485 75.170,96.485 75.508 C 96.485 75.845,96.376 76.121,96.242 76.121 C 96.109 76.121,96.000 76.285,96.000 76.485 C 96.000 76.685,95.836 76.848,95.636 76.848 C 95.394 76.848,95.273 77.091,95.273 77.576 C 95.273 78.061,95.152 78.303,94.909 78.303 C 94.709 78.303,94.545 78.412,94.545 78.545 C 94.545 78.679,94.382 78.788,94.182 78.788 C 93.939 78.788,93.818 79.030,93.818 79.515 C 93.818 80.000,93.697 80.242,93.455 80.242 C 93.212 80.242,93.091 80.485,93.091 80.970 C 93.091 81.370,92.982 81.697,92.848 81.697 C 92.715 81.697,92.606 81.970,92.606 82.303 C 92.606 82.680,92.469 82.909,92.242 82.909 C 92.000 82.909,91.879 83.152,91.879 83.636 C 91.879 84.121,91.758 84.364,91.515 84.364 C 91.315 84.364,91.152 84.527,91.152 84.727 C 91.152 84.927,90.988 85.091,90.788 85.091 C 90.562 85.091,90.424 85.320,90.424 85.697 C 90.424 86.074,90.287 86.303,90.061 86.303 C 89.818 86.303,89.697 86.545,89.697 87.030 C 89.697 87.515,89.576 87.758,89.333 87.758 C 89.133 87.758,88.970 87.921,88.970 88.121 C 88.970 88.321,88.861 88.485,88.727 88.485 C 88.594 88.485,88.485 88.758,88.485 89.091 C 88.485 89.468,88.347 89.697,88.121 89.697 C 87.879 89.697,87.758 89.939,87.758 90.424 C 87.758 90.909,87.636 91.152,87.394 91.152 C 87.194 91.152,87.030 91.315,87.030 91.515 C 87.030 91.715,86.867 91.879,86.667 91.879 C 86.424 91.879,86.303 92.121,86.303 92.606 C 86.303 93.091,86.182 93.333,85.939 93.333 C 85.713 93.333,85.576 93.562,85.576 93.939 C 85.576 94.273,85.467 94.545,85.333 94.545 C 85.200 94.545,85.091 94.873,85.091 95.273 C 85.091 95.758,84.970 96.000,84.727 96.000 C 84.527 96.000,84.364 96.164,84.364 96.364 C 84.364 96.564,84.200 96.727,84.000 96.727 C 83.774 96.727,83.636 96.956,83.636 97.333 C 83.636 97.710,83.499 97.939,83.273 97.939 C 83.030 97.939,82.909 98.182,82.909 98.667 C 82.909 99.152,82.788 99.394,82.545 99.394 C 82.345 99.394,82.182 99.558,82.182 99.758 C 82.182 99.958,82.018 100.121,81.818 100.121 C 81.592 100.121,81.455 100.350,81.455 100.727 C 81.455 101.061,81.345 101.333,81.212 101.333 C 81.079 101.333,80.970 101.661,80.970 102.061 C 80.970 102.545,80.848 102.788,80.606 102.788 C 80.364 102.788,80.242 103.030,80.242 103.515 C 80.242 104.000,80.121 104.242,79.879 104.242 C 79.679 104.242,79.515 104.352,79.515 104.485 C 79.515 104.618,79.352 104.727,79.152 104.727 C 78.909 104.727,78.788 104.970,78.788 105.455 C 78.788 105.939,78.667 106.182,78.424 106.182 C 78.195 106.182,78.061 106.413,78.061 106.805 C 78.061 107.444,77.571 108.121,77.108 108.121 C 76.965 108.121,76.848 108.448,76.848 108.848 C 76.848 109.333,76.727 109.576,76.485 109.576 C 76.242 109.576,76.121 109.818,76.121 110.303 C 76.121 110.788,76.000 111.030,75.758 111.030 C 75.531 111.030,75.394 111.259,75.394 111.636 C 75.394 112.013,75.257 112.242,75.030 112.242 C 74.830 112.242,74.667 112.406,74.667 112.606 C 74.667 112.806,74.558 112.970,74.424 112.970 C 74.291 112.970,74.182 113.297,74.182 113.697 C 74.182 114.182,74.061 114.424,73.818 114.424 C 73.592 114.424,73.455 114.653,73.455 115.030 C 73.455 115.407,73.317 115.636,73.091 115.636 C 72.891 115.636,72.727 115.800,72.727 116.000 C 72.727 116.200,72.564 116.364,72.364 116.364 C 72.121 116.364,72.000 116.606,72.000 117.091 C 72.000 117.576,71.879 117.818,71.636 117.818 C 71.394 117.818,71.273 118.061,71.273 118.545 C 71.273 119.030,71.152 119.273,70.909 119.273 C 70.683 119.273,70.545 119.502,70.545 119.879 C 70.545 120.212,70.436 120.485,70.303 120.485 C 70.170 120.485,70.061 120.648,70.061 120.848 C 70.061 121.048,69.897 121.212,69.697 121.212 C 69.455 121.212,69.333 121.455,69.333 121.939 C 69.333 122.339,69.225 122.667,69.094 122.667 C 68.620 122.667,67.879 123.513,67.879 124.054 C 67.879 124.383,67.732 124.606,67.515 124.606 C 67.273 124.606,67.152 124.848,67.152 125.333 C 67.152 125.733,67.042 126.061,66.909 126.061 C 66.776 126.061,66.667 126.333,66.667 126.667 C 66.667 127.044,66.529 127.273,66.303 127.273 C 66.061 127.273,65.939 127.515,65.939 128.000 C 65.939 128.485,65.818 128.727,65.576 128.727 C 65.376 128.727,65.212 128.891,65.212 129.091 C 65.212 129.291,65.048 129.455,64.848 129.455 C 64.627 129.455,64.485 129.681,64.485 130.035 C 64.485 130.354,64.321 130.678,64.121 130.754 C 63.921 130.831,63.758 131.170,63.758 131.508 C 63.758 131.891,63.621 132.121,63.394 132.121 C 63.194 132.121,63.030 132.285,63.030 132.485 C 63.030 132.685,62.921 132.848,62.788 132.848 C 62.655 132.848,62.545 133.176,62.545 133.576 C 62.545 134.061,62.424 134.303,62.182 134.303 C 61.956 134.303,61.818 134.532,61.818 134.909 C 61.818 135.286,61.681 135.515,61.455 135.515 C 61.212 135.515,61.091 135.758,61.091 136.242 C 61.091 136.727,60.970 136.970,60.727 136.970 C 60.527 136.970,60.364 137.133,60.364 137.333 C 60.364 137.533,60.200 137.697,60.000 137.697 C 59.774 137.697,59.636 137.926,59.636 138.303 C 59.636 138.636,59.527 138.909,59.394 138.909 C 59.261 138.909,59.152 139.236,59.152 139.636 C 59.152 140.121,59.030 140.364,58.788 140.364 C 58.545 140.364,58.424 140.606,58.424 141.091 C 58.424 141.576,58.303 141.818,58.061 141.818 C 57.861 141.818,57.697 141.927,57.697 142.061 C 57.697 142.194,57.533 142.303,57.333 142.303 C 57.091 142.303,56.970 142.545,56.970 143.030 C 56.970 143.515,56.848 143.758,56.606 143.758 C 56.364 143.758,56.242 144.000,56.242 144.485 C 56.242 144.885,56.126 145.212,55.983 145.212 C 55.520 145.212,55.030 145.889,55.030 146.528 C 55.030 146.921,54.896 147.152,54.667 147.152 C 54.424 147.152,54.303 147.394,54.303 147.879 C 54.303 148.364,54.182 148.606,53.939 148.606 C 53.713 148.606,53.576 148.835,53.576 149.212 C 53.576 149.589,53.438 149.818,53.212 149.818 C 53.012 149.818,52.848 149.982,52.848 150.182 C 52.848 150.382,52.685 150.545,52.485 150.545 C 52.242 150.545,52.121 150.788,52.121 151.273 C 52.121 151.673,52.012 152.000,51.879 152.000 C 51.745 152.000,51.636 152.164,51.636 152.364 C 51.636 152.564,51.473 152.727,51.273 152.727 C 51.046 152.727,50.909 152.956,50.909 153.333 C 50.909 153.710,50.772 153.939,50.545 153.939 C 50.303 153.939,50.182 154.182,50.182 154.667 C 50.182 155.152,50.061 155.394,49.818 155.394 C 49.596 155.394,49.455 155.620,49.455 155.974 C 49.455 156.293,49.291 156.617,49.091 156.694 C 48.891 156.770,48.727 157.109,48.727 157.447 C 48.727 157.784,48.618 158.061,48.485 158.061 C 48.352 158.061,48.242 158.224,48.242 158.424 C 48.242 158.624,48.079 158.788,47.879 158.788 C 47.636 158.788,47.515 159.030,47.515 159.515 C 47.515 160.000,47.394 160.242,47.152 160.242 C 46.925 160.242,46.788 160.471,46.788 160.848 C 46.788 161.226,46.651 161.455,46.424 161.455 C 46.224 161.455,46.061 161.618,46.061 161.818 C 46.061 162.018,45.897 162.182,45.697 162.182 C 45.455 162.182,45.333 162.424,45.333 162.909 C 45.333 163.394,45.212 163.636,44.970 163.636 C 44.743 163.636,44.606 163.865,44.606 164.242 C 44.606 164.576,44.497 164.848,44.364 164.848 C 44.230 164.848,44.121 165.012,44.121 165.212 C 44.121 165.412,43.958 165.576,43.758 165.576 C 43.515 165.576,43.394 165.818,43.394 166.303 C 43.394 166.788,43.273 167.030,43.030 167.030 C 42.804 167.030,42.667 167.259,42.667 167.636 C 42.667 168.013,42.529 168.242,42.303 168.242 C 42.061 168.242,41.939 168.485,41.939 168.970 C 41.939 169.455,41.818 169.697,41.576 169.697 C 41.347 169.697,41.212 169.928,41.212 170.320 C 41.212 170.960,40.722 171.636,40.260 171.636 C 40.117 171.636,40.000 171.964,40.000 172.364 C 40.000 172.848,39.879 173.091,39.636 173.091 C 39.436 173.091,39.273 173.255,39.273 173.455 C 39.273 173.655,39.109 173.818,38.909 173.818 C 38.667 173.818,38.545 174.061,38.545 174.545 C 38.545 175.030,38.424 175.273,38.182 175.273 C 37.960 175.273,37.818 175.499,37.818 175.853 C 37.818 176.172,37.655 176.496,37.455 176.573 C 37.255 176.649,37.091 176.988,37.091 177.326 C 37.091 177.663,36.982 177.939,36.848 177.939 C 36.715 177.939,36.606 178.212,36.606 178.545 C 36.606 178.923,36.469 179.152,36.242 179.152 C 36.042 179.152,35.879 179.315,35.879 179.515 C 35.879 179.715,35.715 179.879,35.515 179.879 C 35.273 179.879,35.152 180.121,35.152 180.606 C 35.152 181.091,35.030 181.333,34.788 181.333 C 34.588 181.333,34.424 181.497,34.424 181.697 C 34.424 181.897,34.261 182.061,34.061 182.061 C 33.834 182.061,33.697 182.290,33.697 182.667 C 33.697 183.000,33.588 183.273,33.455 183.273 C 33.321 183.273,33.212 183.600,33.212 184.000 C 33.212 184.485,33.091 184.727,32.848 184.727 C 32.606 184.727,32.485 184.970,32.485 185.455 C 32.485 185.939,32.364 186.182,32.121 186.182 C 31.921 186.182,31.758 186.291,31.758 186.424 C 31.758 186.558,31.594 186.667,31.394 186.667 C 31.152 186.667,31.030 186.909,31.030 187.394 C 31.030 187.879,30.909 188.121,30.667 188.121 C 30.424 188.121,30.303 188.364,30.303 188.848 C 30.303 189.333,30.182 189.576,29.939 189.576 C 29.739 189.576,29.576 189.739,29.576 189.939 C 29.576 190.139,29.467 190.303,29.333 190.303 C 29.200 190.303,29.091 190.576,29.091 190.909 C 29.091 191.286,28.954 191.515,28.727 191.515 C 28.485 191.515,28.364 191.758,28.364 192.242 C 28.364 192.727,28.242 192.970,28.000 192.970 C 27.774 192.970,27.636 193.199,27.636 193.576 C 27.636 193.953,27.499 194.182,27.273 194.182 C 27.030 194.182,26.909 194.424,26.909 194.909 C 26.909 195.394,26.788 195.636,26.545 195.636 C 26.303 195.636,26.182 195.879,26.182 196.364 C 26.182 196.764,26.073 197.091,25.939 197.091 C 25.806 197.091,25.697 197.364,25.697 197.697 C 25.697 198.074,25.560 198.303,25.333 198.303 C 25.064 198.303,24.970 198.586,24.970 199.394 C 24.970 200.202,24.875 200.485,24.606 200.485 C 24.292 200.485,24.242 201.360,24.242 206.909 C 24.242 212.458,24.292 213.333,24.606 213.333 C 24.875 213.333,24.970 213.616,24.970 214.424 C 24.970 215.232,25.064 215.515,25.333 215.515 C 25.560 215.515,25.697 215.744,25.697 216.121 C 25.697 216.455,25.806 216.727,25.939 216.727 C 26.073 216.727,26.182 217.055,26.182 217.455 C 26.182 217.939,26.303 218.182,26.545 218.182 C 26.788 218.182,26.909 218.424,26.909 218.909 C 26.909 219.394,27.030 219.636,27.273 219.636 C 27.499 219.636,27.636 219.865,27.636 220.242 C 27.636 220.620,27.774 220.848,28.000 220.848 C 28.200 220.848,28.364 221.012,28.364 221.212 C 28.364 221.412,28.527 221.576,28.727 221.576 C 28.927 221.576,29.091 221.739,29.091 221.939 C 29.091 222.139,29.200 222.303,29.333 222.303 C 29.467 222.303,29.576 222.552,29.576 222.855 C 29.576 223.396,30.317 224.242,30.791 224.242 C 30.922 224.242,31.030 224.406,31.030 224.606 C 31.030 224.806,31.194 224.970,31.394 224.970 C 31.594 224.970,31.758 225.133,31.758 225.333 C 31.758 225.533,31.921 225.697,32.121 225.697 C 32.321 225.697,32.485 225.861,32.485 226.061 C 32.485 226.265,32.702 226.424,32.981 226.424 C 33.254 226.424,33.730 226.697,34.039 227.030 C 34.365 227.381,34.870 227.636,35.240 227.636 C 35.646 227.636,35.879 227.769,35.879 228.000 C 35.879 228.226,36.108 228.364,36.485 228.364 C 36.862 228.364,37.091 228.501,37.091 228.727 C 37.091 228.927,37.255 229.091,37.455 229.091 C 37.655 229.091,37.818 229.255,37.818 229.455 C 37.818 229.697,38.061 229.818,38.545 229.818 C 39.030 229.818,39.273 229.939,39.273 230.182 C 39.273 230.460,39.580 230.545,40.580 230.545 C 41.519 230.545,41.927 230.648,42.027 230.909 C 42.104 231.109,42.443 231.273,42.780 231.273 C 43.118 231.273,43.394 231.382,43.394 231.515 C 43.394 231.676,62.990 231.758,101.697 231.758 C 140.404 231.758,160.000 231.676,160.000 231.515 C 160.000 231.382,160.327 231.273,160.727 231.273 C 161.212 231.273,161.455 231.152,161.455 230.909 C 161.455 230.646,161.724 230.545,162.424 230.545 C 163.125 230.545,163.394 230.444,163.394 230.182 C 163.394 229.982,163.558 229.818,163.758 229.818 C 163.958 229.818,164.121 229.655,164.121 229.455 C 164.121 229.212,164.364 229.091,164.848 229.091 C 165.333 229.091,165.576 228.970,165.576 228.727 C 165.576 228.527,165.739 228.364,165.939 228.364 C 166.139 228.364,166.303 228.247,166.303 228.104 C 166.303 227.768,166.920 227.152,167.255 227.152 C 167.398 227.152,167.515 226.988,167.515 226.788 C 167.515 226.545,167.758 226.424,168.242 226.424 C 168.889 226.424,168.970 226.343,168.970 225.697 C 168.970 225.212,169.091 224.970,169.333 224.970 C 169.533 224.970,169.697 224.806,169.697 224.606 C 169.697 224.406,169.814 224.242,169.957 224.242 C 170.419 224.242,170.909 223.566,170.909 222.926 C 170.909 222.534,171.044 222.303,171.273 222.303 C 171.542 222.303,171.636 222.020,171.636 221.212 C 171.636 220.404,171.731 220.121,172.000 220.121 C 172.263 220.121,172.364 219.852,172.364 219.152 C 172.364 218.451,172.465 218.182,172.727 218.182 C 173.036 218.182,173.091 217.562,173.091 214.061 C 173.091 210.559,173.036 209.939,172.727 209.939 C 172.465 209.939,172.364 209.670,172.364 208.970 C 172.364 208.269,172.263 208.000,172.000 208.000 C 171.731 208.000,171.636 207.717,171.636 206.909 C 171.636 206.101,171.542 205.818,171.273 205.818 C 171.046 205.818,170.909 205.589,170.909 205.212 C 170.909 204.879,170.800 204.606,170.667 204.606 C 170.533 204.606,170.424 204.442,170.424 204.242 C 170.424 204.042,170.261 203.879,170.061 203.879 C 169.861 203.879,169.697 203.715,169.697 203.515 C 169.697 203.315,169.533 203.152,169.333 203.152 C 169.133 203.152,168.970 202.988,168.970 202.788 C 168.970 202.588,168.806 202.424,168.606 202.424 C 168.406 202.424,168.242 202.261,168.242 202.061 C 168.242 201.861,168.079 201.697,167.879 201.697 C 167.679 201.697,167.515 201.588,167.515 201.455 C 167.515 201.321,167.352 201.212,167.152 201.212 C 166.952 201.212,166.788 201.048,166.788 200.848 C 166.788 200.648,166.679 200.485,166.545 200.485 C 166.412 200.485,166.303 200.321,166.303 200.121 C 166.303 199.921,166.139 199.758,165.939 199.758 C 165.739 199.758,165.576 199.594,165.576 199.394 C 165.576 199.152,165.333 199.030,164.848 199.030 C 164.364 199.030,164.121 198.909,164.121 198.667 C 164.121 198.460,163.904 198.303,163.619 198.303 C 163.343 198.303,162.953 198.139,162.753 197.939 C 162.553 197.739,162.016 197.576,161.558 197.576 C 161.101 197.576,160.727 197.467,160.727 197.333 C 160.727 197.195,160.000 197.091,159.030 197.091 C 157.684 197.091,157.333 197.016,157.333 196.727 C 157.333 196.406,152.741 196.364,117.455 196.364 C 82.168 196.364,77.576 196.322,77.576 196.000 C 77.576 195.758,77.333 195.636,76.848 195.636 C 76.364 195.636,76.121 195.515,76.121 195.273 C 76.121 195.073,75.958 194.909,75.758 194.909 C 75.531 194.909,75.394 194.680,75.394 194.303 C 75.394 193.926,75.257 193.697,75.030 193.697 C 74.747 193.697,74.667 193.374,74.667 192.242 C 74.667 191.111,74.747 190.788,75.030 190.788 C 75.230 190.788,75.394 190.679,75.394 190.545 C 75.394 190.412,75.558 190.303,75.758 190.303 C 76.000 190.303,76.121 190.061,76.121 189.576 C 76.121 189.091,76.242 188.848,76.485 188.848 C 76.727 188.848,76.848 188.606,76.848 188.121 C 76.848 187.636,76.970 187.394,77.212 187.394 C 77.438 187.394,77.576 187.165,77.576 186.788 C 77.576 186.455,77.685 186.182,77.818 186.182 C 77.952 186.182,78.061 186.018,78.061 185.818 C 78.061 185.618,78.224 185.455,78.424 185.455 C 78.667 185.455,78.788 185.212,78.788 184.727 C 78.788 184.242,78.909 184.000,79.152 184.000 C 79.378 184.000,79.515 183.771,79.515 183.394 C 79.515 183.017,79.653 182.788,79.879 182.788 C 80.079 182.788,80.242 182.624,80.242 182.424 C 80.242 182.224,80.406 182.061,80.606 182.061 C 80.848 182.061,80.970 181.818,80.970 181.333 C 80.970 180.933,81.079 180.606,81.212 180.606 C 81.345 180.606,81.455 180.279,81.455 179.879 C 81.455 179.394,81.576 179.152,81.818 179.152 C 82.018 179.152,82.182 179.042,82.182 178.909 C 82.182 178.776,82.345 178.667,82.545 178.667 C 82.788 178.667,82.909 178.424,82.909 177.939 C 82.909 177.455,83.030 177.212,83.273 177.212 C 83.515 177.212,83.636 176.970,83.636 176.485 C 83.636 176.085,83.744 175.758,83.876 175.758 C 84.350 175.758,85.091 174.911,85.091 174.370 C 85.091 174.067,85.200 173.818,85.333 173.818 C 85.467 173.818,85.576 173.491,85.576 173.091 C 85.576 172.606,85.697 172.364,85.939 172.364 C 86.166 172.364,86.303 172.135,86.303 171.758 C 86.303 171.380,86.440 171.152,86.667 171.152 C 86.909 171.152,87.030 170.909,87.030 170.424 C 87.030 169.939,87.152 169.697,87.394 169.697 C 87.594 169.697,87.758 169.533,87.758 169.333 C 87.758 169.133,87.921 168.970,88.121 168.970 C 88.347 168.970,88.485 168.741,88.485 168.364 C 88.485 168.030,88.594 167.758,88.727 167.758 C 88.861 167.758,88.970 167.594,88.970 167.394 C 88.970 167.194,89.133 167.030,89.333 167.030 C 89.576 167.030,89.697 166.788,89.697 166.303 C 89.697 165.818,89.818 165.576,90.061 165.576 C 90.303 165.576,90.424 165.333,90.424 164.848 C 90.424 164.364,90.545 164.121,90.788 164.121 C 91.014 164.121,91.152 163.892,91.152 163.515 C 91.152 163.138,91.289 162.909,91.515 162.909 C 91.758 162.909,91.879 162.667,91.879 162.182 C 91.879 161.697,92.000 161.455,92.242 161.455 C 92.442 161.455,92.606 161.291,92.606 161.091 C 92.606 160.891,92.715 160.727,92.848 160.727 C 92.982 160.727,93.091 160.455,93.091 160.121 C 93.091 159.744,93.228 159.515,93.455 159.515 C 93.697 159.515,93.818 159.273,93.818 158.788 C 93.818 158.303,93.939 158.061,94.182 158.061 C 94.424 158.061,94.545 157.818,94.545 157.333 C 94.545 156.848,94.667 156.606,94.909 156.606 C 95.109 156.606,95.273 156.497,95.273 156.364 C 95.273 156.230,95.436 156.121,95.636 156.121 C 95.879 156.121,96.000 155.879,96.000 155.394 C 96.000 154.994,96.109 154.667,96.242 154.667 C 96.376 154.667,96.485 154.503,96.485 154.303 C 96.485 154.103,96.648 153.939,96.848 153.939 C 97.075 153.939,97.212 153.710,97.212 153.333 C 97.212 152.956,97.349 152.727,97.576 152.727 C 97.818 152.727,97.939 152.485,97.939 152.000 C 97.939 151.515,98.061 151.273,98.303 151.273 C 98.545 151.273,98.667 151.030,98.667 150.545 C 98.667 150.061,98.788 149.818,99.030 149.818 C 99.257 149.818,99.394 149.589,99.394 149.212 C 99.394 148.879,99.503 148.606,99.636 148.606 C 99.770 148.606,99.879 148.442,99.879 148.242 C 99.879 148.042,100.042 147.879,100.242 147.879 C 100.485 147.879,100.606 147.636,100.606 147.152 C 100.606 146.667,100.727 146.424,100.970 146.424 C 101.170 146.424,101.333 146.261,101.333 146.061 C 101.333 145.861,101.497 145.697,101.697 145.697 C 101.923 145.697,102.061 145.468,102.061 145.091 C 102.061 144.714,102.198 144.485,102.424 144.485 C 102.667 144.485,102.788 144.242,102.788 143.758 C 102.788 143.273,102.909 143.030,103.152 143.030 C 103.378 143.030,103.515 142.801,103.515 142.424 C 103.515 142.091,103.624 141.818,103.758 141.818 C 103.891 141.818,104.000 141.491,104.000 141.091 C 104.000 140.606,104.121 140.364,104.364 140.364 C 104.564 140.364,104.727 140.200,104.727 140.000 C 104.727 139.800,104.891 139.636,105.091 139.636 C 105.333 139.636,105.455 139.394,105.455 138.909 C 105.455 138.424,105.576 138.182,105.818 138.182 C 106.018 138.182,106.182 138.073,106.182 137.939 C 106.182 137.806,106.345 137.697,106.545 137.697 C 106.788 137.697,106.909 137.455,106.909 136.970 C 106.909 136.570,107.018 136.242,107.152 136.242 C 107.285 136.242,107.394 135.915,107.394 135.515 C 107.394 135.030,107.515 134.788,107.758 134.788 C 107.984 134.788,108.121 134.559,108.121 134.182 C 108.121 133.805,108.259 133.576,108.485 133.576 C 108.685 133.576,108.848 133.412,108.848 133.212 C 108.848 133.012,109.012 132.848,109.212 132.848 C 109.455 132.848,109.576 132.606,109.576 132.121 C 109.576 131.636,109.697 131.394,109.939 131.394 C 110.161 131.394,110.303 131.168,110.303 130.814 C 110.303 130.495,110.467 130.171,110.667 130.094 C 110.867 130.017,111.030 129.678,111.030 129.341 C 111.030 129.003,111.139 128.727,111.273 128.727 C 111.406 128.727,111.515 128.564,111.515 128.364 C 111.515 128.164,111.679 128.000,111.879 128.000 C 112.105 128.000,112.242 127.771,112.242 127.394 C 112.242 127.017,112.380 126.788,112.606 126.788 C 112.848 126.788,112.970 126.545,112.970 126.061 C 112.970 125.576,113.091 125.333,113.333 125.333 C 113.533 125.333,113.697 125.170,113.697 124.970 C 113.697 124.770,113.861 124.606,114.061 124.606 C 114.303 124.606,114.424 124.364,114.424 123.879 C 114.424 123.479,114.533 123.152,114.667 123.152 C 114.800 123.152,114.909 122.879,114.909 122.545 C 114.909 122.168,115.046 121.939,115.273 121.939 C 115.515 121.939,115.636 121.697,115.636 121.212 C 115.636 120.727,115.758 120.485,116.000 120.485 C 116.200 120.485,116.364 120.321,116.364 120.121 C 116.364 119.921,116.527 119.758,116.727 119.758 C 116.954 119.758,117.091 119.529,117.091 119.152 C 117.091 118.774,117.228 118.545,117.455 118.545 C 117.655 118.545,117.818 118.382,117.818 118.182 C 117.818 117.982,117.982 117.818,118.182 117.818 C 118.424 117.818,118.545 117.576,118.545 117.091 C 118.545 116.691,118.655 116.364,118.788 116.364 C 118.921 116.364,119.030 116.091,119.030 115.758 C 119.030 115.380,119.168 115.152,119.394 115.152 C 119.636 115.152,119.758 114.909,119.758 114.424 C 119.758 113.939,119.879 113.697,120.121 113.697 C 120.364 113.697,120.485 113.455,120.485 112.970 C 120.485 112.570,120.593 112.242,120.725 112.242 C 121.198 112.242,121.939 111.396,121.939 110.855 C 121.939 110.552,122.048 110.303,122.182 110.303 C 122.315 110.303,122.424 109.976,122.424 109.576 C 122.424 109.091,122.545 108.848,122.788 108.848 C 123.014 108.848,123.152 108.620,123.152 108.242 C 123.152 107.865,123.289 107.636,123.515 107.636 C 123.715 107.636,123.879 107.473,123.879 107.273 C 123.879 107.073,124.042 106.909,124.242 106.909 C 124.485 106.909,124.606 106.667,124.606 106.182 C 124.606 105.697,124.727 105.455,124.970 105.455 C 125.170 105.455,125.333 105.291,125.333 105.091 C 125.333 104.891,125.442 104.727,125.576 104.727 C 125.709 104.727,125.818 104.455,125.818 104.121 C 125.818 103.744,125.956 103.515,126.182 103.515 C 126.424 103.515,126.545 103.273,126.545 102.788 C 126.545 102.303,126.667 102.061,126.909 102.061 C 127.109 102.061,127.273 101.897,127.273 101.697 C 127.273 101.497,127.436 101.333,127.636 101.333 C 127.863 101.333,128.000 101.104,128.000 100.727 C 128.000 100.350,128.137 100.121,128.364 100.121 C 128.606 100.121,128.727 99.879,128.727 99.394 C 128.727 98.909,128.848 98.667,129.091 98.667 C 129.320 98.667,129.455 98.436,129.455 98.043 C 129.455 97.404,129.944 96.727,130.407 96.727 C 130.550 96.727,130.667 96.400,130.667 96.000 C 130.667 95.515,130.788 95.273,131.030 95.273 C 131.273 95.273,131.394 95.030,131.394 94.545 C 131.394 94.145,131.502 93.818,131.634 93.818 C 132.245 93.818,132.848 92.949,132.848 92.067 C 132.848 91.564,132.958 91.152,133.091 91.152 C 133.224 91.152,133.333 90.988,133.333 90.788 C 133.333 90.588,133.497 90.424,133.697 90.424 C 133.923 90.424,134.061 90.195,134.061 89.818 C 134.061 89.441,134.198 89.212,134.424 89.212 C 134.667 89.212,134.788 88.970,134.788 88.485 C 134.788 88.000,134.909 87.758,135.152 87.758 C 135.352 87.758,135.515 87.594,135.515 87.394 C 135.515 87.194,135.679 87.030,135.879 87.030 C 136.101 87.030,136.242 86.804,136.242 86.450 C 136.242 86.131,136.406 85.807,136.606 85.731 C 136.806 85.654,136.970 85.315,136.970 84.977 C 136.970 84.640,137.079 84.364,137.212 84.364 C 137.345 84.364,137.455 84.200,137.455 84.000 C 137.455 83.800,137.618 83.636,137.818 83.636 C 138.061 83.636,138.182 83.394,138.182 82.909 C 138.182 82.424,138.303 82.182,138.545 82.182 C 138.772 82.182,138.909 81.953,138.909 81.576 C 138.909 81.199,139.046 80.970,139.273 80.970 C 139.515 80.970,139.636 80.727,139.636 80.242 C 139.636 79.758,139.758 79.515,140.000 79.515 C 140.200 79.515,140.364 79.352,140.364 79.152 C 140.364 78.952,140.473 78.788,140.606 78.788 C 140.739 78.788,140.848 78.515,140.848 78.182 C 140.848 77.805,140.986 77.576,141.212 77.576 C 141.455 77.576,141.576 77.333,141.576 76.848 C 141.576 76.364,141.697 76.121,141.939 76.121 C 142.182 76.121,142.303 75.879,142.303 75.394 C 142.303 74.909,142.424 74.667,142.667 74.667 C 142.867 74.667,143.030 74.558,143.030 74.424 C 143.030 74.291,143.194 74.182,143.394 74.182 C 143.636 74.182,143.758 73.939,143.758 73.455 C 143.758 72.970,143.879 72.727,144.121 72.727 C 144.321 72.727,144.485 72.564,144.485 72.364 C 144.485 72.164,144.594 72.000,144.727 72.000 C 144.861 72.000,144.970 71.727,144.970 71.394 C 144.970 71.017,145.107 70.788,145.333 70.788 C 145.576 70.788,145.697 70.545,145.697 70.061 C 145.697 69.576,145.818 69.333,146.061 69.333 C 146.303 69.333,146.424 69.091,146.424 68.606 C 146.424 68.121,146.545 67.879,146.788 67.879 C 146.988 67.879,147.152 67.715,147.152 67.515 C 147.152 67.315,147.315 67.152,147.515 67.152 C 147.741 67.152,147.879 66.923,147.879 66.545 C 147.879 66.212,147.988 65.939,148.121 65.939 C 148.255 65.939,148.364 65.612,148.364 65.212 C 148.364 64.727,148.485 64.485,148.727 64.485 C 148.927 64.485,149.091 64.321,149.091 64.121 C 149.091 63.921,149.255 63.758,149.455 63.758 C 149.681 63.758,149.818 63.529,149.818 63.152 C 149.818 62.774,149.956 62.545,150.182 62.545 C 150.424 62.545,150.545 62.303,150.545 61.818 C 150.545 61.333,150.667 61.091,150.909 61.091 C 151.138 61.091,151.273 60.860,151.273 60.468 C 151.273 59.828,151.762 59.152,152.225 59.152 C 152.368 59.152,152.485 58.824,152.485 58.424 C 152.485 57.939,152.606 57.697,152.848 57.697 C 153.091 57.697,153.212 57.455,153.212 56.970 C 153.212 56.485,153.333 56.242,153.576 56.242 C 153.802 56.242,153.939 56.013,153.939 55.636 C 153.939 55.259,154.077 55.030,154.303 55.030 C 154.503 55.030,154.667 54.867,154.667 54.667 C 154.667 54.467,154.830 54.303,155.030 54.303 C 155.273 54.303,155.394 54.061,155.394 53.576 C 155.394 53.176,155.503 52.848,155.636 52.848 C 155.770 52.848,155.879 52.685,155.879 52.485 C 155.879 52.285,156.042 52.121,156.242 52.121 C 156.469 52.121,156.606 51.892,156.606 51.515 C 156.606 51.138,156.743 50.909,156.970 50.909 C 157.212 50.909,157.333 50.667,157.333 50.182 C 157.333 49.697,157.455 49.455,157.697 49.455 C 157.919 49.455,158.061 49.228,158.061 48.874 C 158.061 48.555,158.224 48.232,158.424 48.155 C 158.624 48.078,158.788 47.739,158.788 47.402 C 158.788 47.064,158.897 46.788,159.030 46.788 C 159.164 46.788,159.273 46.461,159.273 46.061 C 159.273 45.576,159.394 45.333,159.636 45.333 C 159.899 45.333,160.000 45.064,160.000 44.364 C 160.000 43.663,160.101 43.394,160.364 43.394 C 160.643 43.394,160.727 43.084,160.727 42.061 C 160.727 41.037,160.812 40.727,161.091 40.727 C 161.401 40.727,161.455 40.067,161.455 36.242 C 161.455 32.418,161.401 31.758,161.091 31.758 C 160.812 31.758,160.727 31.448,160.727 30.424 C 160.727 29.401,160.643 29.091,160.364 29.091 C 160.094 29.091,160.000 28.808,160.000 28.000 C 160.000 27.192,159.906 26.909,159.636 26.909 C 159.410 26.909,159.273 26.680,159.273 26.303 C 159.273 25.970,159.164 25.697,159.030 25.697 C 158.897 25.697,158.788 25.370,158.788 24.970 C 158.788 24.485,158.667 24.242,158.424 24.242 C 158.182 24.242,158.061 24.000,158.061 23.515 C 158.061 23.030,157.939 22.788,157.697 22.788 C 157.497 22.788,157.333 22.679,157.333 22.545 C 157.333 22.412,157.170 22.303,156.970 22.303 C 156.770 22.303,156.606 22.139,156.606 21.939 C 156.606 21.739,156.442 21.576,156.242 21.576 C 156.000 21.576,155.879 21.333,155.879 20.848 C 155.879 20.448,155.770 20.121,155.636 20.121 C 155.503 20.121,155.394 19.958,155.394 19.758 C 155.394 19.558,155.280 19.394,155.140 19.394 C 155.000 19.394,154.633 19.121,154.324 18.788 C 154.015 18.455,153.639 18.182,153.487 18.182 C 153.336 18.182,153.212 18.018,153.212 17.818 C 153.212 17.576,152.970 17.455,152.485 17.455 C 152.000 17.455,151.758 17.333,151.758 17.091 C 151.758 16.891,151.648 16.727,151.515 16.727 C 151.382 16.727,151.273 16.564,151.273 16.364 C 151.273 16.121,151.030 16.000,150.545 16.000 C 150.061 16.000,149.818 15.879,149.818 15.636 C 149.818 15.436,149.655 15.273,149.455 15.273 C 149.255 15.273,149.091 15.164,149.091 15.030 C 149.091 14.897,148.818 14.788,148.485 14.788 C 148.108 14.788,147.879 14.651,147.879 14.424 C 147.879 14.182,147.636 14.061,147.152 14.061 C 146.667 14.061,146.424 13.939,146.424 13.697 C 146.424 13.418,146.114 13.333,145.091 13.333 C 144.067 13.333,143.758 13.249,143.758 12.970 C 143.758 12.727,143.515 12.606,143.030 12.606 C 142.545 12.606,142.303 12.485,142.303 12.242 C 142.303 11.920,136.566 11.879,92.121 11.879 C 47.677 11.879,41.939 11.920,41.939 12.242 M208.485 12.242 C 208.485 12.469,208.256 12.606,207.879 12.606 C 207.502 12.606,207.273 12.743,207.273 12.970 C 207.273 13.212,207.030 13.333,206.545 13.333 C 206.061 13.333,205.818 13.455,205.818 13.697 C 205.818 13.939,205.576 14.061,205.091 14.061 C 204.691 14.061,204.364 14.185,204.364 14.337 C 204.364 14.744,203.595 15.256,202.970 15.265 C 202.650 15.270,202.424 15.423,202.424 15.636 C 202.424 15.836,202.261 16.000,202.061 16.000 C 201.861 16.000,201.697 16.164,201.697 16.364 C 201.697 16.564,201.533 16.727,201.333 16.727 C 201.133 16.727,200.970 16.891,200.970 17.091 C 200.970 17.291,200.806 17.455,200.606 17.455 C 200.406 17.455,200.242 17.618,200.242 17.818 C 200.242 18.018,200.133 18.182,200.000 18.182 C 199.867 18.182,199.758 18.455,199.758 18.788 C 199.758 19.165,199.620 19.394,199.394 19.394 C 199.194 19.394,199.030 19.558,199.030 19.758 C 199.030 19.958,198.867 20.121,198.667 20.121 C 198.424 20.121,198.303 20.364,198.303 20.848 C 198.303 21.333,198.182 21.576,197.939 21.576 C 197.713 21.576,197.576 21.805,197.576 22.182 C 197.576 22.559,197.438 22.788,197.212 22.788 C 196.929 22.788,196.848 23.111,196.848 24.242 C 196.848 25.051,196.741 25.697,196.606 25.697 C 196.445 25.697,196.364 57.939,196.364 121.939 C 196.364 185.939,196.445 218.182,196.606 218.182 C 196.739 218.182,196.848 218.618,196.848 219.152 C 196.848 219.852,196.949 220.121,197.212 220.121 C 197.455 220.121,197.576 220.364,197.576 220.848 C 197.576 221.333,197.697 221.576,197.939 221.576 C 198.182 221.576,198.303 221.818,198.303 222.303 C 198.303 222.788,198.424 223.030,198.667 223.030 C 198.893 223.030,199.030 223.259,199.030 223.636 C 199.030 224.013,199.168 224.242,199.394 224.242 C 199.594 224.242,199.758 224.406,199.758 224.606 C 199.758 224.806,199.867 224.970,200.000 224.970 C 200.133 224.970,200.242 225.133,200.242 225.333 C 200.242 225.533,200.406 225.697,200.606 225.697 C 200.806 225.697,200.970 225.861,200.970 226.061 C 200.970 226.261,201.133 226.424,201.333 226.424 C 201.533 226.424,201.697 226.588,201.697 226.788 C 201.697 226.988,201.861 227.152,202.061 227.152 C 202.261 227.152,202.424 227.261,202.424 227.394 C 202.424 227.527,202.588 227.636,202.788 227.636 C 202.988 227.636,203.152 227.744,203.152 227.876 C 203.152 228.350,203.998 229.091,204.539 229.091 C 204.868 229.091,205.091 229.238,205.091 229.455 C 205.091 229.655,205.255 229.818,205.455 229.818 C 205.655 229.818,205.818 229.982,205.818 230.182 C 205.818 230.457,206.116 230.545,207.042 230.545 C 208.036 230.545,208.371 230.659,208.827 231.152 C 209.431 231.803,218.182 232.143,218.182 231.515 C 218.182 231.382,218.455 231.273,218.788 231.273 C 219.165 231.273,219.394 231.135,219.394 230.909 C 219.394 230.640,219.677 230.545,220.485 230.545 C 221.293 230.545,221.576 230.451,221.576 230.182 C 221.576 229.956,221.805 229.818,222.182 229.818 C 222.559 229.818,222.788 229.681,222.788 229.455 C 222.788 229.255,222.952 229.091,223.152 229.091 C 223.352 229.091,223.515 228.927,223.515 228.727 C 223.515 228.527,223.679 228.364,223.879 228.364 C 224.079 228.364,224.242 228.200,224.242 228.000 C 224.242 227.800,224.406 227.636,224.606 227.636 C 224.806 227.636,224.970 227.527,224.970 227.394 C 224.970 227.261,225.242 227.152,225.576 227.152 C 225.953 227.152,226.182 227.014,226.182 226.788 C 226.182 226.588,226.345 226.424,226.545 226.424 C 226.788 226.424,226.909 226.182,226.909 225.697 C 226.909 225.212,227.030 224.970,227.273 224.970 C 227.473 224.970,227.636 224.806,227.636 224.606 C 227.636 224.406,227.744 224.242,227.876 224.242 C 228.350 224.242,229.091 223.396,229.091 222.855 C 229.091 222.552,229.200 222.303,229.333 222.303 C 229.467 222.303,229.576 221.976,229.576 221.576 C 229.576 221.091,229.697 220.848,229.939 220.848 C 230.202 220.848,230.303 220.579,230.303 219.879 C 230.303 219.178,230.404 218.909,230.667 218.909 C 230.989 218.909,231.030 207.933,231.030 121.576 C 231.030 35.219,230.989 24.242,230.667 24.242 C 230.404 24.242,230.303 23.973,230.303 23.273 C 230.303 22.572,230.202 22.303,229.939 22.303 C 229.739 22.303,229.576 22.139,229.576 21.939 C 229.576 21.739,229.467 21.576,229.333 21.576 C 229.200 21.576,229.091 21.248,229.091 20.848 C 229.091 20.364,228.970 20.121,228.727 20.121 C 228.510 20.121,228.364 19.898,228.364 19.569 C 228.364 19.028,227.623 18.182,227.149 18.182 C 227.017 18.182,226.909 18.018,226.909 17.818 C 226.909 17.618,226.745 17.455,226.545 17.455 C 226.345 17.455,226.182 17.291,226.182 17.091 C 226.182 16.891,226.073 16.727,225.939 16.727 C 225.806 16.727,225.697 16.564,225.697 16.364 C 225.697 16.164,225.533 16.000,225.333 16.000 C 225.133 16.000,224.970 15.836,224.970 15.636 C 224.970 15.436,224.806 15.273,224.606 15.273 C 224.406 15.273,224.242 15.164,224.242 15.030 C 224.242 14.897,223.915 14.788,223.515 14.788 C 223.030 14.788,222.788 14.667,222.788 14.424 C 222.788 14.224,222.679 14.061,222.545 14.061 C 222.412 14.061,222.303 13.897,222.303 13.697 C 222.303 13.428,222.020 13.333,221.212 13.333 C 220.404 13.333,220.121 13.239,220.121 12.970 C 220.121 12.727,219.879 12.606,219.394 12.606 C 218.909 12.606,218.667 12.485,218.667 12.242 C 218.667 11.931,217.939 11.879,213.576 11.879 C 209.212 11.879,208.485 11.931,208.485 12.242 M311.030 12.242 C 311.030 12.512,310.747 12.606,309.939 12.606 C 309.131 12.606,308.848 12.700,308.848 12.970 C 308.848 13.258,308.498 13.333,307.152 13.333 C 305.805 13.333,305.455 13.408,305.455 13.697 C 305.455 13.960,305.185 14.061,304.485 14.061 C 303.785 14.061,303.515 14.162,303.515 14.424 C 303.515 14.694,303.232 14.788,302.424 14.788 C 301.824 14.788,301.333 14.897,301.333 15.030 C 301.333 15.164,300.897 15.273,300.364 15.273 C 299.663 15.273,299.394 15.374,299.394 15.636 C 299.394 15.879,299.152 16.000,298.667 16.000 C 298.182 16.000,297.939 16.121,297.939 16.364 C 297.939 16.626,297.670 16.727,296.970 16.727 C 296.269 16.727,296.000 16.828,296.000 17.091 C 296.000 17.333,295.758 17.455,295.273 17.455 C 294.788 17.455,294.545 17.576,294.545 17.818 C 294.545 18.061,294.303 18.182,293.818 18.182 C 293.418 18.182,293.091 18.291,293.091 18.424 C 293.091 18.558,292.818 18.667,292.485 18.667 C 292.108 18.667,291.879 18.804,291.879 19.030 C 291.879 19.273,291.636 19.394,291.152 19.394 C 290.667 19.394,290.424 19.515,290.424 19.758 C 290.424 19.958,290.261 20.121,290.061 20.121 C 289.861 20.121,289.697 20.285,289.697 20.485 C 289.697 20.711,289.468 20.848,289.091 20.848 C 288.714 20.848,288.485 20.986,288.485 21.212 C 288.485 21.455,288.242 21.576,287.758 21.576 C 287.273 21.576,287.030 21.697,287.030 21.939 C 287.030 22.139,286.867 22.303,286.667 22.303 C 286.467 22.303,286.303 22.412,286.303 22.545 C 286.303 22.679,286.030 22.788,285.697 22.788 C 285.320 22.788,285.091 22.925,285.091 23.152 C 285.091 23.352,284.927 23.515,284.727 23.515 C 284.527 23.515,284.364 23.679,284.364 23.879 C 284.364 24.079,284.200 24.242,284.000 24.242 C 283.800 24.242,283.636 24.406,283.636 24.606 C 283.636 24.806,283.473 24.970,283.273 24.970 C 283.073 24.970,282.909 25.133,282.909 25.333 C 282.909 25.562,282.678 25.697,282.286 25.697 C 281.646 25.697,280.970 26.187,280.970 26.649 C 280.970 26.792,280.806 26.909,280.606 26.909 C 280.406 26.909,280.242 27.073,280.242 27.273 C 280.242 27.473,280.079 27.636,279.879 27.636 C 279.679 27.636,279.515 27.800,279.515 28.000 C 279.515 28.200,279.352 28.364,279.152 28.364 C 278.952 28.364,278.788 28.527,278.788 28.727 C 278.788 28.927,278.624 29.091,278.424 29.091 C 278.224 29.091,278.061 29.208,278.061 29.351 C 278.061 29.686,277.444 30.303,277.108 30.303 C 276.965 30.303,276.848 30.467,276.848 30.667 C 276.848 30.867,276.685 31.030,276.485 31.030 C 276.285 31.030,276.121 31.194,276.121 31.394 C 276.121 31.594,275.958 31.758,275.758 31.758 C 275.558 31.758,275.394 31.921,275.394 32.121 C 275.394 32.321,275.230 32.485,275.030 32.485 C 274.830 32.485,274.667 32.602,274.667 32.745 C 274.667 33.080,274.050 33.697,273.714 33.697 C 273.571 33.697,273.455 34.024,273.455 34.424 C 273.455 34.909,273.333 35.152,273.091 35.152 C 272.891 35.152,272.727 35.315,272.727 35.515 C 272.727 35.715,272.564 35.879,272.364 35.879 C 272.164 35.879,272.000 36.042,272.000 36.242 C 272.000 36.442,271.836 36.606,271.636 36.606 C 271.432 36.606,271.273 36.823,271.273 37.102 C 271.273 37.376,271.000 37.852,270.667 38.161 C 270.316 38.486,270.061 38.991,270.061 39.361 C 270.061 39.767,269.928 40.000,269.697 40.000 C 269.497 40.000,269.333 40.164,269.333 40.364 C 269.333 40.564,269.170 40.727,268.970 40.727 C 268.743 40.727,268.606 40.956,268.606 41.333 C 268.606 41.710,268.469 41.939,268.242 41.939 C 268.000 41.939,267.879 42.182,267.879 42.667 C 267.879 43.152,267.758 43.394,267.515 43.394 C 267.273 43.394,267.152 43.636,267.152 44.121 C 267.152 44.521,267.042 44.848,266.909 44.848 C 266.776 44.848,266.667 45.121,266.667 45.455 C 266.667 45.832,266.529 46.061,266.303 46.061 C 266.061 46.061,265.939 46.303,265.939 46.788 C 265.939 47.273,265.818 47.515,265.576 47.515 C 265.376 47.515,265.212 47.679,265.212 47.879 C 265.212 48.079,265.048 48.242,264.848 48.242 C 264.586 48.242,264.485 48.512,264.485 49.212 C 264.485 49.912,264.384 50.182,264.121 50.182 C 263.858 50.182,263.758 50.452,263.758 51.159 C 263.758 51.804,263.634 52.184,263.394 52.276 C 263.133 52.376,263.030 52.784,263.030 53.723 C 263.030 54.442,262.921 55.030,262.788 55.030 C 262.655 55.030,262.545 55.467,262.545 56.000 C 262.545 56.700,262.444 56.970,262.182 56.970 C 261.912 56.970,261.818 57.253,261.818 58.061 C 261.818 58.869,261.724 59.152,261.455 59.152 C 261.160 59.152,261.091 59.542,261.091 61.212 C 261.091 62.882,261.022 63.273,260.727 63.273 C 260.423 63.273,260.364 63.771,260.364 66.303 C 260.364 68.835,260.304 69.333,260.000 69.333 C 259.678 69.333,259.636 75.488,259.636 123.273 C 259.636 171.057,259.678 177.212,260.000 177.212 C 260.320 177.212,260.364 179.731,260.364 198.424 C 260.364 217.118,260.407 219.636,260.727 219.636 C 260.990 219.636,261.091 219.906,261.091 220.606 C 261.091 221.306,261.192 221.576,261.455 221.576 C 261.697 221.576,261.818 221.818,261.818 222.303 C 261.818 222.788,261.939 223.030,262.182 223.030 C 262.382 223.030,262.545 223.194,262.545 223.394 C 262.545 223.594,262.655 223.758,262.788 223.758 C 262.921 223.758,263.030 224.030,263.030 224.364 C 263.030 224.741,263.168 224.970,263.394 224.970 C 263.594 224.970,263.758 225.133,263.758 225.333 C 263.758 225.533,263.921 225.697,264.121 225.697 C 264.364 225.697,264.485 225.939,264.485 226.424 C 264.485 227.071,264.566 227.152,265.212 227.152 C 265.612 227.152,265.939 227.261,265.939 227.394 C 265.939 227.527,266.103 227.636,266.303 227.636 C 266.503 227.636,266.667 227.800,266.667 228.000 C 266.667 228.200,266.776 228.364,266.909 228.364 C 267.042 228.364,267.152 228.527,267.152 228.727 C 267.152 228.927,267.315 229.091,267.515 229.091 C 267.715 229.091,267.879 229.255,267.879 229.455 C 267.879 229.697,268.121 229.818,268.606 229.818 C 269.091 229.818,269.333 229.939,269.333 230.182 C 269.333 230.404,269.559 230.545,269.913 230.545 C 270.233 230.545,270.556 230.709,270.633 230.909 C 270.710 231.109,271.049 231.273,271.386 231.273 C 271.724 231.273,272.000 231.382,272.000 231.515 C 272.000 231.670,274.101 231.758,277.818 231.758 C 281.535 231.758,283.636 231.670,283.636 231.515 C 283.636 231.382,283.800 231.273,284.000 231.273 C 284.200 231.273,284.364 231.109,284.364 230.909 C 284.364 230.646,284.633 230.545,285.333 230.545 C 286.034 230.545,286.303 230.444,286.303 230.182 C 286.303 229.982,286.467 229.818,286.667 229.818 C 286.867 229.818,287.030 229.655,287.030 229.455 C 287.030 229.255,287.194 229.091,287.394 229.091 C 287.594 229.091,287.758 228.927,287.758 228.727 C 287.758 228.501,287.987 228.364,288.364 228.364 C 288.741 228.364,288.970 228.226,288.970 228.000 C 288.970 227.800,289.133 227.636,289.333 227.636 C 289.533 227.636,289.697 227.527,289.697 227.394 C 289.697 227.261,289.861 227.152,290.061 227.152 C 290.261 227.152,290.424 226.988,290.424 226.788 C 290.424 226.588,290.588 226.424,290.788 226.424 C 291.030 226.424,291.152 226.182,291.152 225.697 C 291.152 225.212,291.273 224.970,291.515 224.970 C 291.715 224.970,291.879 224.806,291.879 224.606 C 291.879 224.406,292.042 224.242,292.242 224.242 C 292.469 224.242,292.606 224.013,292.606 223.636 C 292.606 223.303,292.715 223.030,292.848 223.030 C 292.982 223.030,293.091 222.867,293.091 222.667 C 293.091 222.467,293.255 222.303,293.455 222.303 C 293.724 222.303,293.818 222.020,293.818 221.212 C 293.818 220.404,293.912 220.121,294.182 220.121 C 294.461 220.121,294.545 219.811,294.545 218.788 C 294.545 217.764,294.630 217.455,294.909 217.455 C 295.232 217.455,295.273 208.943,295.273 142.303 C 295.273 75.663,295.314 67.152,295.636 67.152 C 295.899 67.152,296.000 66.882,296.000 66.182 C 296.000 65.648,296.109 65.212,296.242 65.212 C 296.376 65.212,296.485 64.776,296.485 64.242 C 296.485 63.542,296.586 63.273,296.848 63.273 C 297.091 63.273,297.212 63.030,297.212 62.545 C 297.212 62.061,297.333 61.818,297.576 61.818 C 297.818 61.818,297.939 61.576,297.939 61.091 C 297.939 60.606,298.061 60.364,298.303 60.364 C 298.529 60.364,298.667 60.135,298.667 59.758 C 298.667 59.380,298.804 59.152,299.030 59.152 C 299.230 59.152,299.394 58.988,299.394 58.788 C 299.394 58.588,299.503 58.424,299.636 58.424 C 299.770 58.424,299.879 58.097,299.879 57.697 C 299.879 57.212,300.000 56.970,300.242 56.970 C 300.442 56.970,300.606 56.806,300.606 56.606 C 300.606 56.406,300.770 56.242,300.970 56.242 C 301.170 56.242,301.333 56.133,301.333 56.000 C 301.333 55.867,301.497 55.758,301.697 55.758 C 301.897 55.758,302.061 55.594,302.061 55.394 C 302.061 55.194,302.224 55.030,302.424 55.030 C 302.624 55.030,302.788 54.867,302.788 54.667 C 302.788 54.467,302.952 54.303,303.152 54.303 C 303.352 54.303,303.515 54.139,303.515 53.939 C 303.515 53.739,303.624 53.576,303.758 53.576 C 303.891 53.576,304.000 53.412,304.000 53.212 C 304.000 53.012,304.164 52.848,304.364 52.848 C 304.564 52.848,304.727 52.685,304.727 52.485 C 304.727 52.285,304.891 52.121,305.091 52.121 C 305.291 52.121,305.455 52.012,305.455 51.879 C 305.455 51.745,305.618 51.636,305.818 51.636 C 306.018 51.636,306.182 51.473,306.182 51.273 C 306.182 51.046,306.411 50.909,306.788 50.909 C 307.165 50.909,307.394 50.772,307.394 50.545 C 307.394 50.303,307.636 50.182,308.121 50.182 C 308.606 50.182,308.848 50.061,308.848 49.818 C 308.848 49.576,309.091 49.455,309.576 49.455 C 310.061 49.455,310.303 49.333,310.303 49.091 C 310.303 48.865,310.532 48.727,310.909 48.727 C 311.242 48.727,311.515 48.618,311.515 48.485 C 311.515 48.352,312.006 48.242,312.606 48.242 C 313.414 48.242,313.697 48.148,313.697 47.879 C 313.697 47.600,314.007 47.515,315.030 47.515 C 316.054 47.515,316.364 47.431,316.364 47.152 C 316.364 46.841,317.024 46.788,320.848 46.788 C 324.673 46.788,325.333 46.841,325.333 47.152 C 325.333 47.431,325.643 47.515,326.667 47.515 C 327.690 47.515,328.000 47.600,328.000 47.879 C 328.000 48.141,328.269 48.242,328.970 48.242 C 329.503 48.242,329.939 48.352,329.939 48.485 C 329.939 48.618,330.267 48.727,330.667 48.727 C 331.152 48.727,331.394 48.848,331.394 49.091 C 331.394 49.354,331.663 49.455,332.364 49.455 C 333.064 49.455,333.333 49.556,333.333 49.818 C 333.333 50.018,333.497 50.182,333.697 50.182 C 333.897 50.182,334.061 50.345,334.061 50.545 C 334.061 50.788,334.303 50.909,334.788 50.909 C 335.273 50.909,335.515 51.030,335.515 51.273 C 335.515 51.473,335.679 51.636,335.879 51.636 C 336.079 51.636,336.242 51.745,336.242 51.879 C 336.242 52.012,336.406 52.121,336.606 52.121 C 336.806 52.121,336.970 52.285,336.970 52.485 C 336.970 52.685,337.079 52.848,337.212 52.848 C 337.345 52.848,337.455 53.012,337.455 53.212 C 337.455 53.455,337.697 53.576,338.182 53.576 C 338.667 53.576,338.909 53.697,338.909 53.939 C 338.909 54.139,339.073 54.303,339.273 54.303 C 339.515 54.303,339.636 54.545,339.636 55.030 C 339.636 55.430,339.753 55.758,339.896 55.758 C 340.232 55.758,340.848 56.374,340.848 56.710 C 340.848 56.853,341.012 56.970,341.212 56.970 C 341.412 56.970,341.576 57.133,341.576 57.333 C 341.576 57.533,341.739 57.697,341.939 57.697 C 342.182 57.697,342.303 57.939,342.303 58.424 C 342.303 58.909,342.424 59.152,342.667 59.152 C 342.893 59.152,343.030 59.380,343.030 59.758 C 343.030 60.135,343.168 60.364,343.394 60.364 C 343.636 60.364,343.758 60.606,343.758 61.091 C 343.758 61.576,343.879 61.818,344.121 61.818 C 344.364 61.818,344.485 62.061,344.485 62.545 C 344.485 62.945,344.594 63.273,344.727 63.273 C 344.861 63.273,344.970 63.545,344.970 63.879 C 344.970 64.256,345.107 64.485,345.333 64.485 C 345.628 64.485,345.697 64.875,345.697 66.545 C 345.697 68.215,345.766 68.606,346.061 68.606 C 346.368 68.606,346.424 69.185,346.424 72.364 C 346.424 75.542,346.368 76.121,346.061 76.121 C 345.766 76.121,345.697 76.512,345.697 78.182 C 345.697 79.852,345.628 80.242,345.333 80.242 C 345.071 80.242,344.970 80.512,344.970 81.212 C 344.970 81.745,344.861 82.182,344.727 82.182 C 344.594 82.182,344.485 82.345,344.485 82.545 C 344.485 82.745,344.321 82.909,344.121 82.909 C 343.879 82.909,343.758 83.152,343.758 83.636 C 343.758 84.121,343.636 84.364,343.394 84.364 C 343.152 84.364,343.030 84.606,343.030 85.091 C 343.030 85.576,342.909 85.818,342.667 85.818 C 342.440 85.818,342.303 86.047,342.303 86.424 C 342.303 86.801,342.166 87.030,341.939 87.030 C 341.739 87.030,341.576 87.194,341.576 87.394 C 341.576 87.594,341.412 87.758,341.212 87.758 C 340.983 87.758,340.848 87.988,340.848 88.381 C 340.848 89.020,340.359 89.697,339.896 89.697 C 339.753 89.697,339.636 89.861,339.636 90.061 C 339.636 90.261,339.473 90.424,339.273 90.424 C 339.073 90.424,338.909 90.588,338.909 90.788 C 338.909 90.988,338.745 91.152,338.545 91.152 C 338.345 91.152,338.182 91.315,338.182 91.515 C 338.182 91.741,337.953 91.879,337.576 91.879 C 337.199 91.879,336.970 92.016,336.970 92.242 C 336.970 92.442,336.806 92.606,336.606 92.606 C 336.406 92.606,336.242 92.770,336.242 92.970 C 336.242 93.170,336.079 93.333,335.879 93.333 C 335.679 93.333,335.515 93.442,335.515 93.576 C 335.515 93.709,335.352 93.818,335.152 93.818 C 334.952 93.818,334.788 93.982,334.788 94.182 C 334.788 94.409,334.558 94.545,334.174 94.545 C 333.837 94.545,333.498 94.709,333.421 94.909 C 333.330 95.146,332.953 95.273,332.338 95.273 C 331.660 95.273,331.394 95.375,331.394 95.636 C 331.394 95.879,331.152 96.000,330.667 96.000 C 330.182 96.000,329.939 96.121,329.939 96.364 C 329.939 96.626,329.670 96.727,328.970 96.727 C 328.436 96.727,328.000 96.836,328.000 96.970 C 328.000 97.103,327.564 97.212,327.030 97.212 C 326.330 97.212,326.061 97.313,326.061 97.576 C 326.061 97.883,325.481 97.939,322.303 97.939 C 319.125 97.939,318.545 97.995,318.545 98.303 C 318.545 98.594,318.182 98.667,316.727 98.667 C 315.273 98.667,314.909 98.739,314.909 99.030 C 314.909 99.293,314.640 99.394,313.939 99.394 C 313.239 99.394,312.970 99.495,312.970 99.758 C 312.970 99.958,312.806 100.121,312.606 100.121 C 312.406 100.121,312.242 100.230,312.242 100.364 C 312.242 100.497,312.021 100.606,311.750 100.606 C 311.479 100.606,311.195 100.770,311.118 100.970 C 311.041 101.170,310.826 101.333,310.641 101.333 C 310.455 101.333,310.303 101.497,310.303 101.697 C 310.303 101.897,310.139 102.061,309.939 102.061 C 309.739 102.061,309.576 102.224,309.576 102.424 C 309.576 102.624,309.412 102.788,309.212 102.788 C 309.012 102.788,308.848 102.952,308.848 103.152 C 308.848 103.352,308.685 103.515,308.485 103.515 C 308.285 103.515,308.121 103.679,308.121 103.879 C 308.121 104.079,308.004 104.242,307.861 104.242 C 307.526 104.242,306.909 104.859,306.909 105.195 C 306.909 105.338,306.745 105.455,306.545 105.455 C 306.303 105.455,306.182 105.697,306.182 106.182 C 306.182 106.667,306.061 106.909,305.818 106.909 C 305.596 106.909,305.455 107.135,305.455 107.489 C 305.455 107.808,305.291 108.132,305.091 108.209 C 304.891 108.286,304.727 108.625,304.727 108.962 C 304.727 109.346,304.591 109.576,304.364 109.576 C 304.084 109.576,304.000 109.886,304.000 110.909 C 304.000 111.642,303.891 112.242,303.758 112.242 C 303.607 112.242,303.515 113.576,303.515 115.758 C 303.515 117.939,303.607 119.273,303.758 119.273 C 303.891 119.273,304.000 119.873,304.000 120.606 C 304.000 121.630,304.084 121.939,304.364 121.939 C 304.590 121.939,304.727 122.168,304.727 122.545 C 304.727 122.923,304.865 123.152,305.091 123.152 C 305.333 123.152,305.455 123.394,305.455 123.879 C 305.455 124.364,305.576 124.606,305.818 124.606 C 306.018 124.606,306.182 124.770,306.182 124.970 C 306.182 125.170,306.345 125.333,306.545 125.333 C 306.774 125.333,306.909 125.564,306.909 125.957 C 306.909 126.596,307.399 127.273,307.861 127.273 C 308.004 127.273,308.121 127.436,308.121 127.636 C 308.121 127.836,308.285 128.000,308.485 128.000 C 308.685 128.000,308.848 128.164,308.848 128.364 C 308.848 128.564,309.012 128.727,309.212 128.727 C 309.412 128.727,309.576 128.891,309.576 129.091 C 309.576 129.291,309.739 129.455,309.939 129.455 C 310.139 129.455,310.303 129.618,310.303 129.818 C 310.303 130.018,310.467 130.182,310.667 130.182 C 310.867 130.182,311.030 130.291,311.030 130.424 C 311.030 130.558,311.303 130.667,311.636 130.667 C 312.013 130.667,312.242 130.804,312.242 131.030 C 312.242 131.273,312.485 131.394,312.970 131.394 C 313.455 131.394,313.697 131.515,313.697 131.758 C 313.697 132.020,313.966 132.121,314.667 132.121 C 315.367 132.121,315.636 132.222,315.636 132.485 C 315.636 132.768,315.960 132.848,317.091 132.848 C 318.222 132.848,318.545 132.929,318.545 133.212 C 318.545 133.521,319.152 133.576,322.545 133.576 C 325.939 133.576,326.545 133.521,326.545 133.212 C 326.545 132.913,326.976 132.848,328.970 132.848 C 330.963 132.848,331.394 132.784,331.394 132.485 C 331.394 132.196,331.744 132.121,333.091 132.121 C 334.438 132.121,334.788 132.046,334.788 131.758 C 334.788 131.469,335.138 131.394,336.485 131.394 C 337.832 131.394,338.182 131.319,338.182 131.030 C 338.182 130.761,338.465 130.667,339.273 130.667 C 339.873 130.667,340.364 130.558,340.364 130.424 C 340.364 130.291,340.800 130.182,341.333 130.182 C 342.034 130.182,342.303 130.081,342.303 129.818 C 342.303 129.576,342.545 129.455,343.030 129.455 C 343.515 129.455,343.758 129.333,343.758 129.091 C 343.758 128.865,343.987 128.727,344.364 128.727 C 344.741 128.727,344.970 128.590,344.970 128.364 C 344.970 128.121,345.212 128.000,345.697 128.000 C 346.182 128.000,346.424 127.879,346.424 127.636 C 346.424 127.374,346.694 127.273,347.394 127.273 C 347.927 127.273,348.364 127.164,348.364 127.030 C 348.364 126.897,348.691 126.788,349.091 126.788 C 349.576 126.788,349.818 126.667,349.818 126.424 C 349.818 126.182,350.061 126.061,350.545 126.061 C 351.030 126.061,351.273 125.939,351.273 125.697 C 351.273 125.497,351.382 125.333,351.515 125.333 C 351.648 125.333,351.758 125.170,351.758 124.970 C 351.758 124.727,352.000 124.606,352.485 124.606 C 352.970 124.606,353.212 124.485,353.212 124.242 C 353.212 124.042,353.376 123.879,353.576 123.879 C 353.776 123.879,353.939 123.715,353.939 123.515 C 353.939 123.273,354.182 123.152,354.667 123.152 C 355.067 123.152,355.394 123.042,355.394 122.909 C 355.394 122.776,355.667 122.667,356.000 122.667 C 356.377 122.667,356.606 122.529,356.606 122.303 C 356.606 122.103,356.770 121.939,356.970 121.939 C 357.170 121.939,357.333 121.776,357.333 121.576 C 357.333 121.376,357.497 121.212,357.697 121.212 C 357.897 121.212,358.061 121.048,358.061 120.848 C 358.061 120.648,358.224 120.485,358.424 120.485 C 358.624 120.485,358.788 120.368,358.788 120.225 C 358.788 119.762,359.465 119.273,360.104 119.273 C 360.496 119.273,360.727 119.138,360.727 118.909 C 360.727 118.709,360.891 118.545,361.091 118.545 C 361.291 118.545,361.455 118.382,361.455 118.182 C 361.455 117.982,361.618 117.818,361.818 117.818 C 362.018 117.818,362.182 117.655,362.182 117.455 C 362.182 117.255,362.345 117.091,362.545 117.091 C 362.745 117.091,362.909 116.927,362.909 116.727 C 362.909 116.527,363.018 116.364,363.152 116.364 C 363.285 116.364,363.394 116.200,363.394 116.000 C 363.394 115.800,363.558 115.636,363.758 115.636 C 363.958 115.636,364.121 115.527,364.121 115.394 C 364.121 115.261,364.285 115.152,364.485 115.152 C 364.685 115.152,364.848 114.988,364.848 114.788 C 364.848 114.588,365.012 114.424,365.212 114.424 C 365.412 114.424,365.576 114.261,365.576 114.061 C 365.576 113.861,365.739 113.697,365.939 113.697 C 366.139 113.697,366.303 113.533,366.303 113.333 C 366.303 113.133,366.412 112.970,366.545 112.970 C 366.679 112.970,366.788 112.806,366.788 112.606 C 366.788 112.406,366.952 112.242,367.152 112.242 C 367.378 112.242,367.515 112.013,367.515 111.636 C 367.515 111.259,367.653 111.030,367.879 111.030 C 368.079 111.030,368.242 110.867,368.242 110.667 C 368.242 110.467,368.406 110.303,368.606 110.303 C 368.806 110.303,368.970 110.139,368.970 109.939 C 368.970 109.739,369.133 109.576,369.333 109.576 C 369.533 109.576,369.697 109.412,369.697 109.212 C 369.697 109.012,369.861 108.848,370.061 108.848 C 370.287 108.848,370.424 108.620,370.424 108.242 C 370.424 107.909,370.533 107.636,370.667 107.636 C 370.800 107.636,370.909 107.473,370.909 107.273 C 370.909 107.073,371.073 106.909,371.273 106.909 C 371.515 106.909,371.636 106.667,371.636 106.182 C 371.636 105.697,371.758 105.455,372.000 105.455 C 372.200 105.455,372.364 105.291,372.364 105.091 C 372.364 104.891,372.527 104.727,372.727 104.727 C 372.954 104.727,373.091 104.498,373.091 104.121 C 373.091 103.744,373.228 103.515,373.455 103.515 C 373.697 103.515,373.818 103.273,373.818 102.788 C 373.818 102.388,373.927 102.061,374.061 102.061 C 374.194 102.061,374.303 101.733,374.303 101.333 C 374.303 100.848,374.424 100.606,374.667 100.606 C 374.867 100.606,375.030 100.497,375.030 100.364 C 375.030 100.230,375.194 100.121,375.394 100.121 C 375.636 100.121,375.758 99.879,375.758 99.394 C 375.758 98.909,375.879 98.667,376.121 98.667 C 376.364 98.667,376.485 98.424,376.485 97.939 C 376.485 97.455,376.606 97.212,376.848 97.212 C 377.111 97.212,377.212 96.943,377.212 96.242 C 377.212 95.709,377.321 95.273,377.455 95.273 C 377.588 95.273,377.697 94.836,377.697 94.303 C 377.697 93.603,377.798 93.333,378.061 93.333 C 378.330 93.333,378.424 93.051,378.424 92.242 C 378.424 91.434,378.519 91.152,378.788 91.152 C 379.051 91.152,379.152 90.882,379.152 90.182 C 379.152 89.481,379.253 89.212,379.515 89.212 C 379.785 89.212,379.879 88.929,379.879 88.121 C 379.879 87.313,379.973 87.030,380.242 87.030 C 380.537 87.030,380.606 86.640,380.606 84.970 C 380.606 83.300,380.675 82.909,380.970 82.909 C 381.287 82.909,381.333 81.576,381.333 72.364 C 381.333 63.152,381.287 61.818,380.970 61.818 C 380.681 61.818,380.606 61.468,380.606 60.121 C 380.606 58.774,380.531 58.424,380.242 58.424 C 379.973 58.424,379.879 58.141,379.879 57.333 C 379.879 56.525,379.785 56.242,379.515 56.242 C 379.253 56.242,379.152 55.973,379.152 55.273 C 379.152 54.572,379.051 54.303,378.788 54.303 C 378.525 54.303,378.424 54.033,378.424 53.326 C 378.424 52.681,378.301 52.301,378.061 52.209 C 377.824 52.118,377.697 51.741,377.697 51.126 C 377.697 50.607,377.588 50.182,377.455 50.182 C 377.321 50.182,377.212 49.745,377.212 49.212 C 377.212 48.512,377.111 48.242,376.848 48.242 C 376.606 48.242,376.485 48.000,376.485 47.515 C 376.485 47.030,376.364 46.788,376.121 46.788 C 375.879 46.788,375.758 46.545,375.758 46.061 C 375.758 45.576,375.636 45.333,375.394 45.333 C 375.168 45.333,375.030 45.104,375.030 44.727 C 375.030 44.350,374.893 44.121,374.667 44.121 C 374.467 44.121,374.303 43.958,374.303 43.758 C 374.303 43.558,374.194 43.394,374.061 43.394 C 373.927 43.394,373.818 43.067,373.818 42.667 C 373.818 42.182,373.697 41.939,373.455 41.939 C 373.228 41.939,373.091 41.710,373.091 41.333 C 373.091 40.956,372.954 40.727,372.727 40.727 C 372.485 40.727,372.364 40.485,372.364 40.000 C 372.364 39.515,372.242 39.273,372.000 39.273 C 371.800 39.273,371.636 39.109,371.636 38.909 C 371.636 38.709,371.473 38.545,371.273 38.545 C 371.046 38.545,370.909 38.316,370.909 37.939 C 370.909 37.606,370.800 37.333,370.667 37.333 C 370.533 37.333,370.424 37.170,370.424 36.970 C 370.424 36.770,370.261 36.606,370.061 36.606 C 369.861 36.606,369.697 36.442,369.697 36.242 C 369.697 36.042,369.533 35.879,369.333 35.879 C 369.091 35.879,368.970 35.636,368.970 35.152 C 368.970 34.667,368.848 34.424,368.606 34.424 C 368.406 34.424,368.242 34.261,368.242 34.061 C 368.242 33.861,368.079 33.697,367.879 33.697 C 367.679 33.697,367.515 33.588,367.515 33.455 C 367.515 33.321,367.352 33.212,367.152 33.212 C 366.952 33.212,366.788 33.048,366.788 32.848 C 366.788 32.648,366.679 32.485,366.545 32.485 C 366.412 32.485,366.303 32.321,366.303 32.121 C 366.303 31.921,366.139 31.758,365.939 31.758 C 365.739 31.758,365.576 31.594,365.576 31.394 C 365.576 31.194,365.412 31.030,365.212 31.030 C 365.012 31.030,364.848 30.867,364.848 30.667 C 364.848 30.467,364.685 30.303,364.485 30.303 C 364.285 30.303,364.121 30.194,364.121 30.061 C 364.121 29.927,363.958 29.818,363.758 29.818 C 363.558 29.818,363.394 29.655,363.394 29.455 C 363.394 29.255,363.285 29.091,363.152 29.091 C 363.018 29.091,362.909 28.927,362.909 28.727 C 362.909 28.527,362.745 28.364,362.545 28.364 C 362.345 28.364,362.182 28.200,362.182 28.000 C 362.182 27.800,362.018 27.636,361.818 27.636 C 361.618 27.636,361.455 27.473,361.455 27.273 C 361.455 27.073,361.291 26.909,361.091 26.909 C 360.891 26.909,360.727 26.745,360.727 26.545 C 360.727 26.345,360.564 26.182,360.364 26.182 C 360.164 26.182,360.000 26.073,360.000 25.939 C 360.000 25.806,359.836 25.697,359.636 25.697 C 359.436 25.697,359.273 25.533,359.273 25.333 C 359.273 25.107,359.044 24.970,358.667 24.970 C 358.290 24.970,358.061 24.832,358.061 24.606 C 358.061 24.406,357.897 24.242,357.697 24.242 C 357.497 24.242,357.333 24.079,357.333 23.879 C 357.333 23.679,357.170 23.515,356.970 23.515 C 356.770 23.515,356.606 23.352,356.606 23.152 C 356.606 22.925,356.377 22.788,356.000 22.788 C 355.667 22.788,355.394 22.679,355.394 22.545 C 355.394 22.412,355.230 22.303,355.030 22.303 C 354.830 22.303,354.667 22.139,354.667 21.939 C 354.667 21.697,354.424 21.576,353.939 21.576 C 353.455 21.576,353.212 21.455,353.212 21.212 C 353.212 21.012,353.048 20.848,352.848 20.848 C 352.648 20.848,352.485 20.685,352.485 20.485 C 352.485 20.259,352.256 20.121,351.879 20.121 C 351.502 20.121,351.273 19.984,351.273 19.758 C 351.273 19.515,351.030 19.394,350.545 19.394 C 350.061 19.394,349.818 19.273,349.818 19.030 C 349.818 18.801,349.587 18.667,349.195 18.667 C 348.556 18.667,347.879 18.177,347.879 17.714 C 347.879 17.568,347.402 17.455,346.788 17.455 C 345.980 17.455,345.697 17.360,345.697 17.091 C 345.697 16.828,345.428 16.727,344.727 16.727 C 344.027 16.727,343.758 16.626,343.758 16.364 C 343.758 16.121,343.515 16.000,343.030 16.000 C 342.545 16.000,342.303 15.879,342.303 15.636 C 342.303 15.374,342.034 15.273,341.333 15.273 C 340.800 15.273,340.364 15.164,340.364 15.030 C 340.364 14.897,340.036 14.788,339.636 14.788 C 339.152 14.788,338.909 14.667,338.909 14.424 C 338.909 14.145,338.599 14.061,337.576 14.061 C 336.552 14.061,336.242 13.976,336.242 13.697 C 336.242 13.408,335.892 13.333,334.545 13.333 C 333.199 13.333,332.848 13.258,332.848 12.970 C 332.848 12.700,332.566 12.606,331.758 12.606 C 330.949 12.606,330.667 12.512,330.667 12.242 C 330.667 11.925,329.414 11.879,320.848 11.879 C 312.283 11.879,311.030 11.925,311.030 12.242 " stroke="none" fill="#049c4c" fill-rule="evenodd"></path><path id="path1" d="" stroke="none" fill="#089c4c" fill-rule="evenodd"></path><path id="path2" d="" stroke="none" fill="#089c4c" fill-rule="evenodd"></path><path id="path3" d="" stroke="none" fill="#089c4c" fill-rule="evenodd"></path><path id="path4" d="" stroke="none" fill="#089c4c" fill-rule="evenodd"></path></g></svg>