<?xml version="1.0" standalone="no"?>
<!DOCTYPE svg PUBLIC "-//W3C//DTD SVG 20010904//EN"
 "http://www.w3.org/TR/2001/REC-SVG-20010904/DTD/svg10.dtd">
<svg version="1.0" xmlns="http://www.w3.org/2000/svg"
 width="586.000000pt" height="586.000000pt" viewBox="0 0 586.000000 586.000000"
 preserveAspectRatio="xMidYMid meet">
<metadata>
Created by potrace 1.11, written by Peter Selinger 2001-2013
</metadata>
<g transform="translate(0.000000,586.000000) scale(0.100000,-0.100000)"
fill="#000000" stroke="none">
<path d="M615 4510 c-3 -5 -14 -10 -24 -10 -30 0 -112 -81 -137 -135 -57 -120
1 -270 126 -329 43 -20 63 -21 530 -26 267 -3 491 -9 498 -13 6 -5 12 -20 12
-34 0 -26 -17 -58 -123 -238 -70 -118 -82 -139 -308 -525 -94 -162 -206 -353
-247 -425 -41 -71 -106 -184 -145 -250 -89 -152 -159 -272 -207 -355 -21 -36
-66 -112 -100 -170 -114 -190 -130 -232 -130 -330 0 -70 5 -95 25 -139 35 -74
77 -124 136 -161 102 -63 55 -60 972 -60 821 0 838 0 880 20 204 96 208 369 7
464 -44 21 -59 21 -653 26 -588 5 -609 6 -623 24 -8 11 -14 28 -14 38 0 10 37
80 81 156 45 75 98 166 119 202 21 36 63 110 95 165 32 55 70 120 85 145 15
25 52 88 82 140 89 154 196 336 278 475 42 72 88 150 102 175 30 54 139 242
260 445 129 219 159 283 165 358 13 157 -83 301 -239 358 -50 18 -87 19 -775
19 -470 0 -724 -3 -728 -10z"/>
<path d="M3013 4490 c-57 -33 -98 -80 -119 -137 -11 -31 -13 -294 -13 -1438
l-1 -1400 24 -50 c25 -54 107 -135 137 -135 10 0 21 -4 24 -10 10 -17 110 -11
157 9 54 23 115 82 139 135 18 39 19 100 19 1456 l0 1415 -21 40 c-50 96 -129
145 -231 145 -51 0 -73 -6 -115 -30z"/>
<path d="M4498 4499 c-162 -45 -286 -112 -395 -214 -163 -150 -255 -334 -284
-565 -9 -70 -10 -370 -6 -1158 6 -1056 6 -1064 27 -1107 25 -52 71 -100 122
-126 48 -25 161 -26 208 -3 45 23 101 81 125 129 19 39 20 72 25 1160 l5 1120
27 58 c84 180 285 269 468 207 103 -34 170 -93 223 -195 29 -56 31 -67 31
-165 1 -97 -2 -110 -29 -165 -44 -87 -119 -157 -206 -189 -38 -14 -88 -26
-109 -26 -112 0 -204 -52 -253 -144 -33 -63 -31 -166 5 -227 60 -101 154 -147
279 -135 234 21 409 103 569 266 98 99 166 207 212 337 31 86 32 92 32 273 1
178 0 188 -28 270 -49 147 -109 243 -221 355 -135 135 -256 203 -443 249 -91
23 -295 20 -384 -5z"/>
</g>
</svg>
